<?xml version="1.0" encoding="utf-8"?>
<!-- Generator: Adobe Illustrator 18.0.0, SVG Export Plug-In . SVG Version: 6.00 Build 0)  -->
<!DOCTYPE svg PUBLIC "-//W3C//DTD SVG 1.1//EN" "http://www.w3.org/Graphics/SVG/1.1/DTD/svg11.dtd">
<svg version="1.1" id="Layer_1" xmlns="http://www.w3.org/2000/svg" xmlns:xlink="http://www.w3.org/1999/xlink" x="0px" y="0px"
	 viewBox="0 0 504 180" enable-background="new 0 0 504 180" xml:space="preserve">
<rect opacity="0" fill="#FFFFFF" width="502.8" height="180"/>
<g>
	<path fill="#FFFFFF" d="M146.2,62.8c0,1.2,0.1,1.8,0.2,2.2c0.1,0.2,0.3,0.3,0.7,0.5c1.2,0.4,3.6,0.6,7.2,0.6v0.7h-24.3v-0.7
		c1.6,0,3.1-0.1,4.3-0.2c1.3-0.1,2.4-0.3,3.4-0.6c0.3-0.3,0.5-1.1,0.5-2.4V18.4c0-1.2-0.2-1.9-0.5-2.3c-0.3-0.4-0.6-0.7-0.9-0.8
		c-0.9-0.3-3.2-0.4-6.6-0.4v-0.7l15.9-1.4v50.1H146.2z"/>
	<path fill="#FFFFFF" d="M172.4,31.3v31.4c0,1.2,0.1,1.8,0.2,2.2c0.1,0.2,0.3,0.3,0.7,0.5c1.2,0.4,3.6,0.6,7.2,0.6v0.7h-24.3v-0.7
		c1.6,0,3.1-0.1,4.3-0.2c1.3-0.1,2.4-0.3,3.4-0.6c0.3-0.3,0.5-1.1,0.5-2.4V36.9c0-1.1-0.1-1.7-0.3-2c-0.4-0.5-0.7-0.8-1.1-1.1
		c-0.9-0.3-3.3-0.4-6.9-0.4v-0.7L172.4,31.3z M168,12.6c1.3,0,2.4,0.4,3.3,1.4c0.8,0.8,1.3,2,1.3,3.3c0,1.4-0.4,2.4-1.3,3.3
		c-0.8,0.8-2,1.4-3.3,1.4c-1.3,0-2.4-0.4-3.3-1.4c-0.8-0.8-1.3-2-1.3-3.3c0-1.4,0.4-2.4,1.3-3.3C165.6,13,166.7,12.6,168,12.6z"/>
	<path fill="#FFFFFF" d="M198.6,67.2l-11.6-32c-0.5-1.3-0.8-2-0.9-2.2c-0.3-0.5-1.3-0.8-3-0.8h-1.8v-0.8h19v0.8c-1.3,0-2.5,0-3.9,0
		c-1.3,0-2,0.4-2,1.1l0.5,1.7l7.9,21.4l5.6-16.3c0.6-1.9,0.9-3.5,0.9-4.5c0-2.2-1.9-3.4-5.6-3.4v-0.8h14v0.8c-2.1,0-3.8,0.5-5,1.6
		c-1.2,1.1-2.4,3.6-3.9,7.7l-8.9,25.8H198.6z"/>
	<path fill="#FFFFFF" d="M234.6,31.3v31.4c0,1.2,0.1,1.8,0.2,2.2c0.1,0.2,0.3,0.3,0.7,0.5c1.2,0.4,3.6,0.6,7.2,0.6v0.7h-24.3v-0.7
		c1.6,0,3.1-0.1,4.3-0.2c1.3-0.1,2.4-0.3,3.4-0.6c0.3-0.3,0.5-1.1,0.5-2.4V36.9c0-1.1-0.1-1.7-0.3-2c-0.4-0.5-0.7-0.8-1.1-1.1
		c-0.9-0.3-3.3-0.4-6.9-0.4v-0.7L234.6,31.3z M230.3,12.6c1.3,0,2.4,0.4,3.3,1.4c0.8,0.8,1.3,2,1.3,3.3c0,1.4-0.4,2.4-1.3,3.3
		c-0.8,0.8-2,1.4-3.3,1.4c-1.3,0-2.4-0.4-3.3-1.4c-0.8-0.8-1.3-2-1.3-3.3c0-1.4,0.4-2.4,1.3-3.3C227.8,13,228.9,12.6,230.3,12.6z"/>
	<path fill="#FFFFFF" d="M260.3,46.4v16.3c0,1.2,0.1,1.8,0.2,2.2c0.1,0.2,0.4,0.3,0.7,0.5c0.4,0.2,1.2,0.3,2.2,0.4
		c1.1,0.1,2,0.2,2.8,0.2v0.7H245v-0.7c1.3,0,2.4-0.1,3.6-0.2c1.2-0.1,2.2-0.3,3.2-0.6c0.3-0.3,0.5-1.1,0.5-2.4V37.6
		c0-0.5,0-0.9,0-1.5c0-0.5-0.1-0.8-0.4-1.2l-0.5-0.8c-0.5-0.4-2.6-0.6-6.3-0.6v-0.7l15-1.4v10.5c0.3-2.3,1.1-4.4,2.1-6.3
		c1.6-2.5,3.2-3.9,4.9-4.1c1.7-0.2,2.8-0.3,3.3-0.3c3.5,0,6.2,1.1,8.3,3.2c1.7,1.8,2.5,3.9,2.5,6.3v22c0,1.2,0.1,1.8,0.2,2.2
		c0.1,0.2,0.4,0.3,0.8,0.5s1.3,0.3,2.4,0.4c1.2,0.1,2.3,0.2,3.3,0.2v0.7h-21.3V66c0.8,0,1.9-0.1,3.1-0.2c1.2-0.1,2.2-0.3,3.1-0.6
		c0.3-0.3,0.5-1.1,0.5-2.4V41.7c0-2.6-0.2-4.7-0.6-6.1c-0.7-2.3-2-3.4-4-3.4c-2.5,0-4.6,1.6-6.2,4.7
		C261.6,39.3,260.7,42.4,260.3,46.4z"/>
	<path fill="#FFFFFF" d="M297.8,52.7c-1.8-0.8-3.2-2-4.1-3.5c-0.9-1.5-1.5-3.2-1.5-5.3c0-3.6,1.6-6.5,4.9-9.1c3-2.3,6.2-3.4,9.7-3.4
		c1.1,0,2.1,0.1,3.3,0.4c1.2,0.3,2.2,0.6,3.3,1.1v-2c0-2.6,0.4-4.3,1.4-5.1c0.9-0.8,2.3-1.2,4.2-1.2c0.8,0,1.6,0.3,2.1,0.8
		c0.6,0.5,0.9,1.3,0.9,2.2c0,2-0.9,3-2.7,3c-1.9,0-2.8-0.9-2.8-2.7c0-0.3,0.1-0.6,0.2-0.9c0.1-0.3,0.2-0.5,0.4-0.8
		c-1.1,0.2-1.8,0.6-2.2,1.5c-0.3,0.8-0.5,1.9-0.5,3.3c0.1,1.2,0.1,2,0.1,2.5c2.1,1.1,3.9,2.4,5.1,4.1c1.3,1.7,1.9,3.7,1.9,6
		c0,3.4-1.6,6.1-4.9,8.3c-2.8,1.9-6.1,3-9.7,3c-2.5,0-5-0.4-7.2-1.4c-1.9,0-3.5,0.3-4.6,0.9c-1.6,0.8-2.4,2.2-2.4,4.1
		c0,0.8,0.7,1.5,2.1,1.9c1.4,0.5,3.9,0.7,7.8,0.7h4.9c5,0,8.6,0.6,11.2,2c3.2,1.7,4.9,4.4,4.9,8.3c0,4.1-1.5,7.3-4.3,9.5
		c-3,2.2-6.7,3.3-11.4,3.3c-5.6,0-10-0.9-13.4-2.7c-3.3-1.9-5-4-5-6.3c0-1.6,0.9-2.8,2.7-3.9c1.3-0.7,3.3-1.5,6-2.2
		c-2.4-0.8-4.2-1.8-5.4-2.8c-1.6-1.4-2.4-3.2-2.4-5.4c0-2.3,0.7-4.2,2.1-5.7C293.3,53.4,295.2,52.7,297.8,52.7z M307.8,83.3
		c3.7,0,6.6-0.7,8.6-2.3c2.1-1.6,3.1-3.5,3.1-5.7c0-2.6-0.8-4.4-2.5-5.4c-1.7-0.9-4.7-1.4-9.3-1.4c-5.2,0-8.8,0.6-10.7,1.8
		c-1.6,0.9-2.4,2.7-2.4,5.2c0,2.3,0.6,4.1,2,5.3C298.6,82.5,302.4,83.3,307.8,83.3z M313.7,43.1c0-3.5-0.4-6.1-1.4-7.9
		c-1.1-2.1-3-3.1-5.7-3.1c-2.4,0-4.2,0.9-5.4,3c-1.2,2-1.7,4.6-1.7,8c0,3.9,0.5,6.6,1.5,8.3c0.9,1.7,2.8,2.5,5.6,2.5
		c2.5,0,4.3-0.8,5.4-2.6C313.2,49.6,313.7,46.9,313.7,43.1z"/>
	<path fill="#FFFFFF" d="M325.2,80.2c3.1-1.6,5.4-3.8,6.9-6.7c1.3-2.4,1.8-4.6,1.6-6.9c-0.3,0.3-0.7,0.5-1.2,0.6
		c-0.4,0.1-0.8,0.2-1.3,0.2c-1.1,0-2.1-0.4-3-1.2c-0.8-0.7-1.3-1.8-1.3-3c0-1.5,0.4-2.7,1.4-3.8c0.9-1.1,2.2-1.6,3.9-1.6
		c1.5,0,2.7,0.6,3.6,1.8c0.8,1.3,1.3,2.8,1.3,4.9c0,3.7-0.8,6.7-2.4,9.2c-1.8,2.7-4.9,5.2-9.2,7.2L325.2,80.2z"/>
</g>
<g>
	<path fill="#FFFFFF" d="M41.2,21.2c0-0.6-0.1-0.9-0.2-1.2c-0.2-0.3-0.4-0.5-0.6-0.5c-0.5-0.1-1.8-0.2-3.8-0.2v-0.4l8.9-0.7V24
		c0.1-1.3,0.5-2.4,1.3-3.5c1.1-1.5,2.3-2.3,3.8-2.3c0.6,0,1.2,0.2,1.9,0.5c0.6,0.4,1.2,0.8,1.4,1.5c0.2,0.6,0.3,1.1,0.3,1.6
		c0,1.3-0.5,2.1-1.5,2.5c-0.2,0.1-0.5,0.2-0.9,0.2c-0.6,0-1.2-0.2-1.6-0.6c-0.4-0.4-0.6-1.1-0.6-1.9c0-0.5,0.2-1.1,0.6-1.7
		s0.9-0.7,1.5-0.6c-0.2-0.6-0.7-0.9-1.7-0.9c-0.8,0-1.8,0.6-2.6,1.9c-1.2,1.7-1.7,3.8-1.7,6.4v8.5c0,0.6,0,1.1,0.1,1.2
		s0.2,0.2,0.4,0.3c0.6,0.2,2,0.3,4,0.3v0.4H36.6v-0.4c0.8,0,1.7,0,2.4-0.1c0.7-0.1,1.4-0.2,1.9-0.4c0.2-0.1,0.3-0.6,0.3-1.4V21.2
		H41.2z"/>
	<path fill="#FFFFFF" d="M73.5,28.1c0,3-1.1,5.4-3.1,7.4c-1.9,1.8-4,2.6-6.3,2.6c-2.4,0-4.4-0.8-6.2-2.4c-2.1-1.9-3.2-4.4-3.2-7.6
		c0-3,1.1-5.4,3.1-7.4c1.9-1.8,4-2.6,6.3-2.6s4.4,0.8,6.2,2.4C72.6,22.5,73.5,25,73.5,28.1z M68.8,28.1c0-3.4-0.3-5.8-0.8-7.2
		c-0.6-1.6-1.9-2.4-3.7-2.4c-1.7,0-2.8,0.7-3.5,2.3c-0.7,1.6-1.1,3.9-1.1,7.3s0.3,5.8,0.9,7.4c0.6,1.6,1.8,2.3,3.7,2.3
		c1.7,0,2.8-0.7,3.5-2.3C68.5,33.9,68.8,31.3,68.8,28.1z"/>
	<path fill="#FFFFFF" d="M84.3,42.1C83.7,44,83,45.3,82.5,46c-0.6,0.8-1.5,1.3-2.4,1.3c-1.3,0-2.2-0.1-2.8-0.4
		c-0.6-0.2-1.1-0.7-1.2-1.4c-0.2-0.6-0.2-1.2-0.2-1.5c0-0.9,0.4-1.6,1.3-2.1c0.3-0.2,0.7-0.3,1.1-0.3c0.6,0,1.1,0.2,1.6,0.6
		c0.4,0.4,0.6,1.1,0.6,1.8c0,1.3-0.6,2-1.9,2.2c0.2,0.2,0.4,0.4,0.6,0.4s0.4,0,0.7,0c0.8,0,1.5-0.3,2-0.9c0.5-0.6,1.1-1.8,1.7-3.5
		l1.5-4.1l-6.6-17.9c-0.3-0.7-0.4-1.2-0.5-1.3c-0.2-0.3-0.7-0.4-1.6-0.4h-1.1v-0.4h10.5v0.4c-0.7,0-1.4,0-2.1,0
		c-0.7,0-1.1,0.2-1.1,0.5l0.3,0.9l4.4,11.8l3.1-9.1c0.3-1.1,0.5-1.9,0.5-2.5c0-1.3-1.1-1.8-3.1-1.8V18h7.7v0.4
		c-1.2,0-2.1,0.3-2.7,0.8c-0.6,0.5-1.4,2-2.1,4.2L84.3,42.1z"/>
	<path fill="#FFFFFF" d="M109.4,21.6c-0.1-1.1-0.5-1.8-1.3-2.3c-0.7-0.5-1.7-0.7-2.7-0.7c-1.7,0-2.8,0.7-3.6,2.3
		c-0.6,1.6-1.1,3.9-1.1,7.3c0,3.1,0.4,5.4,1.3,7c0.8,1.6,2,2.3,3.5,2.3c1.7,0,3.2-0.5,4.3-1.7c1.5-1.5,2.2-3.5,2.2-6.3h0.3
		c0,2.7-0.7,4.9-2.1,6.3c-1.4,1.6-3.4,2.3-5.8,2.3c-2,0-3.8-0.8-5.6-2.4c-2-1.9-3.1-4.3-3.1-7.3c0-3.2,1.1-5.7,3.2-7.8
		c1.8-1.8,3.7-2.6,5.6-2.6c1.3,0,2.5,0.2,3.7,0.7c1.7,0.7,2.7,1.8,3.2,3.3c0.1,0.5,0.2,1.1,0.2,1.4c0,0.9-0.4,1.7-1.4,2.2
		c-0.3,0.2-0.7,0.3-1.2,0.3c-0.5,0-1.1-0.2-1.5-0.6c-0.4-0.4-0.6-0.9-0.6-1.7c0-0.6,0.2-1.2,0.6-1.6
		C108.1,21.9,108.7,21.6,109.4,21.6z"/>
	<path fill="#FFFFFF" d="M119,28.3c0,3.3,0.4,5.7,1.2,7.2c0.7,1.5,2,2.2,3.6,2.2c1.7,0,3.2-0.5,4.4-1.7c1.6-1.4,2.3-3.3,2.3-5.6h0.3
		c0,2.3-0.7,4.2-2.2,5.6c-1.5,1.5-3.4,2.2-5.9,2.2c-2,0-3.9-0.7-5.6-2.3c-2-1.8-3-4.2-3-7.2c0-3.2,0.9-5.8,3-7.8
		c1.7-1.8,3.7-2.6,5.8-2.6c2,0,3.7,0.6,5,1.8c1.9,1.7,2.8,4.5,2.8,8.4H119V28.3z M126.9,27.8c0-3-0.3-5.3-0.8-6.7
		c-0.5-1.6-1.4-2.3-2.5-2.3c-1.7,0-2.8,0.7-3.5,2.2c-0.6,1.5-1.1,3.8-1.1,6.9L126.9,27.8L126.9,27.8z"/>
</g>
<g>
	<path fill="#FFFFFF" d="M188.3,123.5V74.3c0-1.2-0.2-1.9-0.5-2.3c-0.3-0.4-0.6-0.7-0.9-0.8c-0.9-0.3-3.1-0.4-6.4-0.4v-0.7l15.7-1.4
		v29.3c0-2.5,0.8-5,2.4-7.2c1.6-2.2,3.6-3.4,5.8-3.4c5,0,8.9,2.2,11.7,6.7c2.2,3.6,3.3,7.3,3.3,11.2c0,5.1-1.5,9.4-4.3,12.9
		c-2.8,3.6-6.1,5.4-9.8,5.4c-3.4,0-5.9-0.4-7.5-1.3c-1.6-0.8-3.4-2.5-5.2-5.2l-3.6,6.4H188.3z M196.1,110.1c0,5.3,0.9,8.9,3,10.8
		c1.3,1.3,3,1.8,5.3,1.8c2.3,0,3.9-1.6,4.9-4.7c0.9-3.2,1.5-7.4,1.5-12.7c0-6.2-0.5-10.7-1.7-13.3c-1.2-2.6-2.6-3.9-4.7-3.9
		c-2.2,0-4.1,1.3-5.6,3.9c-1.8,3.1-2.6,7.3-2.6,12.7v5.5H196.1z"/>
	<path fill="#FFFFFF" d="M230.4,92.8c0-1.2-0.1-1.8-0.3-2.1c-0.4-0.5-0.7-0.8-1.1-1.1c-0.9-0.3-3.3-0.4-6.9-0.4v-0.7l16-1.3v10.5
		c0.2-2.3,0.9-4.4,2.3-6.4c1.8-2.7,4.1-4.1,6.9-4.1c1.1,0,2.2,0.3,3.4,1.1c1.3,0.7,2,1.6,2.4,2.6c0.4,1.1,0.6,2,0.6,2.8
		c0,2.2-0.9,3.7-2.7,4.5c-0.4,0.2-1.1,0.3-1.8,0.3c-1.2,0-2.1-0.4-2.8-1.2c-0.7-0.7-1.2-1.9-1.2-3.5c0-0.9,0.4-2,1.2-3
		c0.7-0.9,1.7-1.4,2.6-1.2c-0.3-1.2-1.4-1.8-3-1.8s-3.2,1.2-4.7,3.5c-2.1,3-3.2,6.9-3.2,11.6v15.5c0,1.2,0.1,1.8,0.2,2.2
		c0.1,0.2,0.3,0.3,0.7,0.5c1.2,0.4,3.6,0.6,7.2,0.6v0.7H222V122c1.6,0,3.1-0.1,4.3-0.2c1.3-0.1,2.4-0.3,3.4-0.6
		c0.3-0.3,0.5-1.1,0.5-2.4V92.8H230.4z"/>
	<path fill="#FFFFFF" d="M263.7,105.6c0,5.9,0.7,10.2,2.1,13c1.4,2.6,3.6,4,6.4,4c3.1,0,5.7-1.1,8-3.1c2.8-2.5,4.2-5.9,4.2-10.2h0.6
		c0,4.1-1.4,7.6-4,10.2c-2.6,2.6-6.2,4-10.7,4c-3.7,0-7.1-1.4-10.1-4.2c-3.6-3.3-5.4-7.7-5.4-13.1c0-5.8,1.8-10.5,5.3-14.2
		c3.1-3.2,6.5-4.7,10.4-4.7c3.6,0,6.5,1.1,9,3.2c3.5,3.1,5.3,8.1,5.3,15.2L263.7,105.6L263.7,105.6z M278,104.6
		c0-5.4-0.5-9.5-1.5-12.2c-0.9-2.8-2.5-4.2-4.6-4.2c-3.1,0-5.2,1.4-6.3,4c-1.3,2.6-1.9,6.9-1.9,12.4L278,104.6L278,104.6z"/>
	<path fill="#FFFFFF" d="M309.5,98.6v-4.9c0-2.2-0.3-3.7-1.1-4.5c-0.7-0.7-2.2-1.2-4.5-1.2c-1.9,0-3.6,0.3-5,1.1
		c-1.5,0.7-2.4,1.7-2.8,3c0.2-0.1,0.5-0.1,0.8-0.1c1.1,0,1.9,0.4,2.5,1.3c0.6,0.8,0.9,1.8,0.9,2.8c0,1.3-0.4,2.2-1.3,3
		c-0.8,0.7-1.8,1.2-3,1.2c-0.7,0-1.4-0.2-1.9-0.6c-1.6-1.1-2.4-2.4-2.4-4c0-0.7,0.2-1.7,0.5-2.6c0.7-2.1,2.7-3.7,5.8-4.7
		c2.2-0.7,4.4-1.1,6.7-1.1c4.1,0,7.2,0.7,9.3,2.3c1.9,1.4,2.8,3.2,2.8,5.2V113c0,3.3,0.1,5.4,0.2,6.1c0.4,1.9,1.4,2.8,3,2.8
		c1.5,0,2.4-0.7,3-2.2c0.5-1.5,0.7-3.6,0.7-6.4c0-0.7,0-1.6,0-2.3s0-1.6,0-2.4v-0.7h0.9v3.7c0,1.2,0,2.3,0.1,3.3
		c0,3.2-0.4,5.4-1.2,6.4c-1.1,1.4-3.1,2.1-6.1,2.1c-2.4,0-4.2-0.4-5.4-1.3c-1.4-0.9-2.3-2.6-2.7-5.1c-1.2,2.6-3,4.5-5.3,5.4
		c-1.4,0.5-3.3,0.8-5.6,0.8s-4.3-0.5-6-1.7c-2.4-1.5-3.6-3.8-3.6-6.9c0-3,1.2-5.5,3.5-7.6c2.3-2,5.2-3.2,8.4-3.4
		c3.3-0.2,5.6-0.7,6.7-1.4C308.9,102.1,309.5,100.7,309.5,98.6z M309.3,113.6v-11.1c-0.6,0.8-1.7,1.5-3,1.6
		c-1.3,0.2-2.5,0.4-3.8,0.5c-1.6,0.4-2.8,1.3-3.8,2.6c-1.2,1.7-1.7,4-1.7,7c0,3.3,0.3,5.4,0.9,6.5c0.6,1.2,1.7,1.7,3.1,1.7
		c2.1,0,4-0.8,5.7-2.6C308.4,118.3,309.3,116.1,309.3,113.6z"/>
	<path fill="#FFFFFF" d="M350,105.1v3.8c0,1.3,0,2.5,0.1,3.7c0,3.9-0.4,6.5-1.4,8c-1.3,2-3.6,3-7.1,3c-3.3,0-5.8-0.8-7.3-2.4
		c-1.6-1.6-2.3-3.9-2.3-6.9V90.6h-6.6v-0.7c4.5-1.2,7.9-3.8,10.2-7.9c1.9-3.4,2.7-7.1,2.7-11.3h1.4v17.5h9.6v2.4h-9.6v22.6
		c0,3,0.1,5,0.3,5.8c0.5,2.1,1.8,3.2,3.7,3.2c2.2,0,3.7-1.2,4.4-3.6c0.5-1.7,0.7-4.7,0.7-9.4v-4h1.1V105.1z"/>
	<path fill="#FFFFFF" d="M367.9,102v16.7c0,1.2,0.1,1.8,0.2,2.2c0.1,0.2,0.4,0.3,0.7,0.5c0.4,0.2,1.2,0.3,2.2,0.4
		c1.1,0.1,2,0.2,2.8,0.2v0.7h-22.1V122c1.6,0,3.1-0.1,4.3-0.2c1.3-0.1,2.4-0.3,3.4-0.6c0.3-0.3,0.5-1.1,0.5-2.4V75.1
		c0-0.7,0-1.4,0-1.8c0-0.5-0.1-0.8-0.4-1.2c-0.4-0.5-0.7-0.8-1.1-0.9c-0.9-0.3-3.2-0.4-6.6-0.4v-0.7l15.9-1.4v29.4
		c0.3-2.2,1.2-4.3,2.4-6.4c1.6-2.5,3.5-3.9,5.7-4.1c0.4,0,0.9,0,1.5-0.1c0.5-0.1,0.9-0.1,1.2-0.1c3.9,0,6.7,1.1,8.8,3.2
		c1.6,1.7,2.3,3.8,2.3,6.3v22c0,1.2,0.1,1.8,0.2,2.2c0.1,0.2,0.4,0.3,0.8,0.5c0.4,0.2,1.3,0.3,2.4,0.4c1.2,0.1,2.3,0.2,3.5,0.2v0.7
		h-21.4v-0.7c0.8,0,1.9-0.1,3.1-0.2c1.2-0.1,2.2-0.3,3.1-0.6c0.3-0.3,0.5-1.1,0.5-2.4V96.4c0-2.4-0.2-4.2-0.7-5.4
		c-0.7-1.8-2.2-2.7-4.4-2.7c-2.3,0-4.3,1.6-6,4.6C369.4,95.3,368.4,98.4,367.9,102z"/>
	<path fill="#FFFFFF" d="M414.1,87.2v31.4c0,1.2,0.1,1.8,0.2,2.2c0.1,0.2,0.3,0.3,0.7,0.5c1.2,0.4,3.6,0.6,7.2,0.6v0.7H398V122
		c1.6,0,3.1-0.1,4.3-0.2c1.3-0.1,2.4-0.3,3.4-0.6c0.3-0.3,0.5-1.1,0.5-2.4V92.8c0-1.1-0.1-1.7-0.3-2c-0.4-0.5-0.7-0.8-1.1-1.1
		c-0.9-0.3-3.3-0.4-6.9-0.4v-0.7L414.1,87.2z M409.8,68.5c1.3,0,2.4,0.4,3.3,1.4c0.8,0.8,1.3,2,1.3,3.3c0,1.4-0.4,2.4-1.3,3.3
		c-0.8,0.8-2,1.4-3.3,1.4c-1.3,0-2.4-0.4-3.3-1.4c-0.8-0.8-1.3-2-1.3-3.3c0-1.4,0.4-2.4,1.3-3.3C407.3,69,408.4,68.5,409.8,68.5z"/>
	<path fill="#FFFFFF" d="M439.7,102.3v16.3c0,1.2,0.1,1.8,0.2,2.2c0.1,0.2,0.4,0.3,0.7,0.5c0.4,0.2,1.2,0.3,2.2,0.4
		c1.1,0.1,2,0.2,2.8,0.2v0.7h-21.3V122c1.3,0,2.4-0.1,3.6-0.2c1.2-0.1,2.2-0.3,3.2-0.6c0.3-0.3,0.5-1.1,0.5-2.4V93.5
		c0-0.5,0-0.9,0-1.5s-0.1-0.8-0.4-1.2l-0.5-0.8c-0.5-0.4-2.6-0.6-6.3-0.6v-0.7l15-1.4v10.5c0.3-2.3,1.1-4.4,2.1-6.3
		c1.6-2.5,3.2-3.9,4.9-4.1c1.7-0.2,2.8-0.3,3.3-0.3c3.5,0,6.2,1.1,8.3,3.2c1.7,1.8,2.5,3.9,2.5,6.3v22c0,1.2,0.1,1.8,0.2,2.2
		c0.1,0.2,0.4,0.3,0.8,0.5c0.4,0.2,1.3,0.3,2.4,0.4c1.2,0.1,2.3,0.2,3.3,0.2v0.7h-21.3v-0.7c0.8,0,1.9-0.1,3.1-0.2
		c1.2-0.1,2.2-0.3,3.1-0.6c0.3-0.3,0.5-1.1,0.5-2.4V97.6c0-2.6-0.2-4.7-0.6-6.1c-0.7-2.3-2-3.4-4-3.4c-2.5,0-4.6,1.6-6.2,4.7
		C441.1,95.3,440.2,98.4,439.7,102.3z"/>
	<path fill="#FFFFFF" d="M477.3,108.7c-1.8-0.8-3.2-2-4.1-3.5c-0.9-1.5-1.5-3.2-1.5-5.3c0-3.6,1.6-6.5,4.9-9.1
		c3-2.3,6.2-3.4,9.7-3.4c1.1,0,2.1,0.1,3.3,0.4s2.2,0.6,3.3,1.1v-2c0-2.6,0.4-4.3,1.4-5.1c0.9-0.8,2.3-1.2,4.2-1.2
		c0.8,0,1.6,0.3,2.1,0.8c0.6,0.5,0.9,1.3,0.9,2.2c0,2-0.9,3-2.7,3c-1.9,0-2.8-0.9-2.8-2.7c0-0.3,0.1-0.6,0.2-0.9
		c0.1-0.3,0.2-0.5,0.4-0.8c-1.1,0.2-1.8,0.6-2.2,1.5c-0.3,0.8-0.5,1.9-0.5,3.3c0.1,1.2,0.1,2,0.1,2.5c2.1,1.1,3.9,2.4,5.1,4.1
		c1.3,1.7,1.9,3.7,1.9,6c0,3.4-1.6,6.1-4.9,8.3c-2.8,1.9-6.1,3-9.7,3c-2.5,0-5-0.4-7.2-1.4c-1.9,0-3.5,0.3-4.6,0.9
		c-1.6,0.8-2.4,2.2-2.4,4.1c0,0.8,0.7,1.5,2.1,1.9c1.4,0.5,3.9,0.7,7.8,0.7h4.9c5,0,8.6,0.6,11.2,2c3.2,1.7,4.9,4.4,4.9,8.3
		c0,4.1-1.5,7.3-4.3,9.5c-3,2.2-6.7,3.3-11.4,3.3c-5.6,0-10-0.9-13.4-2.7c-3.3-1.9-5-4-5-6.3c0-1.6,0.9-2.8,2.7-3.9
		c1.3-0.7,3.3-1.5,6-2.2c-2.4-0.8-4.2-1.8-5.4-2.8c-1.6-1.4-2.4-3.2-2.4-5.4c0-2.3,0.7-4.2,2.1-5.7
		C472.7,109.4,474.7,108.7,477.3,108.7z M487.2,139.3c3.7,0,6.6-0.7,8.6-2.3c2.1-1.6,3.1-3.5,3.1-5.7c0-2.6-0.8-4.4-2.5-5.4
		c-1.7-0.9-4.7-1.4-9.3-1.4c-5.2,0-8.8,0.6-10.7,1.8c-1.6,0.9-2.4,2.7-2.4,5.2c0,2.3,0.6,4.1,2,5.3
		C478.1,138.5,481.8,139.3,487.2,139.3z M493.2,99.1c0-3.5-0.4-6.1-1.4-7.9c-1.1-2.1-3-3.1-5.7-3.1c-2.4,0-4.2,0.9-5.4,3
		s-1.7,4.6-1.7,8c0,3.9,0.5,6.6,1.5,8.3s2.8,2.5,5.6,2.5c2.5,0,4.3-0.8,5.4-2.6C492.7,105.6,493.2,102.9,493.2,99.1z"/>
</g>
<g>
	<g>
		<defs>
			<rect id="SVGID_1_" x="-7.1" y="-1.6" width="594.5" height="173.7"/>
		</defs>
		<clipPath id="SVGID_2_">
			<use xlink:href="#SVGID_1_"  overflow="visible"/>
		</clipPath>
		<g clip-path="url(#SVGID_2_)">
			<path fill="#FFFFFF" d="M298.9,148.1v2.5c0,0.8,0,1.7,0.1,2.4c0,2.5-0.3,4.3-0.8,5.3c-0.8,1.4-2.4,2-4.7,2
				c-2.2,0-3.8-0.5-4.9-1.6s-1.6-2.6-1.6-4.6v-15.7h-4.4v-0.5c3.1-0.7,5.3-2.5,6.9-5.3c1.3-2.2,1.9-4.7,1.9-7.5h0.9v11.7h6.3v1.6
				h-6.3v15c0,2,0.1,3.3,0.2,3.9c0.3,1.4,1.2,2.1,2.4,2.1c1.5,0,2.4-0.8,3-2.4c0.3-1.1,0.5-3.2,0.5-6.3v-2.5H298.9z"/>
			<path fill="#FFFFFF" d="M310.8,146.1v11.1c0,0.7,0.1,1.3,0.2,1.5c0.1,0.1,0.2,0.2,0.5,0.3c0.3,0.1,0.7,0.2,1.5,0.3
				c0.7,0.1,1.4,0.1,1.9,0.1v0.5h-14.8v-0.5c1.1,0,2,0,3-0.1c0.8-0.1,1.6-0.2,2.2-0.4c0.2-0.2,0.3-0.7,0.3-1.6v-29.1
				c0-0.5,0-0.8,0-1.3s-0.1-0.6-0.2-0.7c-0.2-0.4-0.5-0.6-0.7-0.6c-0.6-0.2-2.1-0.3-4.4-0.3v-0.5l10.7-0.9v19.6
				c0.2-1.5,0.7-2.8,1.6-4.2c1.1-1.7,2.3-2.6,3.8-2.7c0.3,0,0.6,0,0.9-0.1c0.3,0,0.6-0.1,0.7-0.1c2.5,0,4.5,0.7,5.8,2.1
				c1.1,1.2,1.6,2.5,1.6,4.2v14.7c0,0.7,0.1,1.3,0.2,1.5c0.1,0.1,0.2,0.2,0.5,0.3c0.3,0.1,0.8,0.2,1.6,0.3c0.7,0.1,1.6,0.1,2.3,0.1
				v0.5h-14.2v-0.5c0.6,0,1.3,0,2-0.1c0.7-0.1,1.5-0.2,2-0.4c0.2-0.2,0.3-0.7,0.3-1.6v-15c0-1.6-0.2-2.7-0.5-3.6
				c-0.5-1.3-1.5-1.8-3-1.8c-1.6,0-2.8,1.1-4,3.1C311.8,141.6,311.2,143.7,310.8,146.1z"/>
			<path fill="#FFFFFF" d="M341.6,136.3v21c0,0.7,0.1,1.3,0.2,1.5c0.1,0.1,0.2,0.2,0.5,0.3c0.7,0.2,2.4,0.4,4.9,0.4v0.5h-16.1v-0.5
				c1.1,0,2,0,3-0.1c0.8-0.1,1.6-0.2,2.2-0.4c0.2-0.2,0.3-0.7,0.3-1.6v-17.3c0-0.7-0.1-1.2-0.2-1.4c-0.2-0.4-0.5-0.6-0.7-0.6
				c-0.6-0.2-2.2-0.3-4.5-0.3v-0.5L341.6,136.3z M338.7,123.7c0.8,0,1.6,0.3,2.2,0.8c0.6,0.6,0.8,1.4,0.8,2.2c0,0.8-0.3,1.6-0.8,2.2
				c-0.6,0.6-1.3,0.8-2.2,0.8s-1.6-0.3-2.2-0.8c-0.6-0.6-0.8-1.4-0.8-2.2c0-0.8,0.3-1.6,0.8-2.2
				C337.1,124.1,337.8,123.7,338.7,123.7z"/>
			<path fill="#FFFFFF" d="M358.7,146.3v10.9c0,0.7,0.1,1.3,0.2,1.5c0.1,0.1,0.2,0.2,0.5,0.3c0.3,0.1,0.7,0.2,1.5,0.3
				c0.7,0.1,1.4,0.1,1.9,0.1v0.5h-14.1v-0.5c0.8,0,1.6,0,2.4-0.1c0.8-0.1,1.5-0.2,2.1-0.4c0.2-0.2,0.3-0.7,0.3-1.6v-16.9
				c0-0.3,0-0.6,0-0.9c0-0.3-0.1-0.6-0.2-0.7l-0.3-0.5c-0.4-0.2-1.8-0.4-4.2-0.4v-0.5l10-0.8v7.1c0.2-1.6,0.7-3,1.5-4.2
				c1.1-1.7,2.1-2.6,3.3-2.7c1.2-0.1,1.9-0.2,2.2-0.2c2.3,0,4.2,0.7,5.5,2.1c1.2,1.2,1.7,2.6,1.7,4.2v14.7c0,0.7,0.1,1.3,0.2,1.5
				c0.1,0.1,0.2,0.2,0.5,0.3c0.3,0.1,0.8,0.2,1.6,0.3c0.7,0.1,1.5,0.1,2.2,0.1v0.5h-14.1v-0.5c0.6,0,1.3,0,2-0.1
				c0.7-0.1,1.5-0.2,2-0.4c0.2-0.2,0.3-0.7,0.3-1.6v-14c0-1.8-0.1-3.2-0.4-4c-0.5-1.5-1.4-2.3-2.6-2.3c-1.7,0-3.1,1.1-4.1,3.2
				C359.6,141.6,359,143.7,358.7,146.3z"/>
			<path fill="#FFFFFF" d="M383.7,150.5c-1.2-0.6-2.1-1.4-2.7-2.3c-0.6-0.9-0.9-2.1-0.9-3.6c0-2.3,1.1-4.3,3.2-6
				c2-1.5,4.1-2.3,6.4-2.3c0.7,0,1.5,0.1,2.2,0.3c0.7,0.2,1.5,0.4,2.1,0.7V136c0-1.7,0.3-2.8,0.9-3.4c0.6-0.5,1.6-0.8,2.8-0.8
				c0.5,0,1.1,0.2,1.5,0.5c0.4,0.4,0.6,0.8,0.6,1.5c0,1.3-0.6,2-1.8,2c-1.3,0-1.9-0.6-1.9-1.8c0-0.2,0-0.4,0.1-0.6
				c0.1-0.2,0.2-0.4,0.3-0.5c-0.7,0.1-1.3,0.4-1.5,0.9c-0.2,0.5-0.3,1.3-0.3,2.2c0,0.7,0.1,1.4,0.1,1.7c1.5,0.7,2.5,1.6,3.4,2.7
				c0.8,1.2,1.3,2.4,1.3,4c0,2.2-1.1,4.1-3.2,5.5c-1.9,1.3-4.1,1.9-6.4,1.9c-1.7,0-3.3-0.3-4.9-0.8c-1.3,0-2.3,0.2-3.2,0.6
				c-1.1,0.5-1.6,1.5-1.6,2.7c0,0.5,0.4,0.9,1.4,1.3c0.8,0.3,2.6,0.5,5.2,0.5h3.2c3.3,0,5.8,0.4,7.5,1.4c2.1,1.1,3.2,3,3.2,5.5
				c0,2.7-0.9,4.9-3,6.3c-1.9,1.5-4.4,2.2-7.6,2.2c-3.7,0-6.7-0.6-8.9-1.9c-2.2-1.3-3.3-2.6-3.3-4.2c0-1.1,0.6-1.9,1.8-2.6
				c0.8-0.5,2.2-0.9,4-1.5c-1.6-0.6-2.8-1.3-3.6-1.9c-1.1-0.9-1.6-2.1-1.6-3.6c0-1.6,0.4-2.8,1.4-3.8
				C380.8,150.9,382,150.5,383.7,150.5z M390.4,171c2.5,0,4.4-0.5,5.8-1.6c1.4-1.1,2.1-2.3,2.1-3.8c0-1.8-0.5-3-1.7-3.6
				s-3.2-0.9-6.2-0.9c-3.5,0-5.8,0.4-7.1,1.3c-1.1,0.6-1.6,1.8-1.6,3.5c0,1.6,0.4,2.7,1.4,3.5C384.2,170.4,386.8,171,390.4,171z
				 M394.4,144.1c0-2.3-0.3-4.1-0.9-5.3c-0.7-1.4-2-2.1-3.8-2.1c-1.7,0-2.8,0.6-3.6,2c-0.7,1.3-1.2,3.1-1.2,5.4
				c0,2.6,0.3,4.4,0.9,5.6c0.6,1.2,1.9,1.7,3.8,1.7c1.7,0,2.8-0.6,3.6-1.8S394.4,146.6,394.4,144.1z"/>
		</g>
	</g>
</g>
<g>
	<path fill="#FFFFFF" d="M55,48.2v17.4c0,0.6,0,1.1,0.1,1.2c0.1,0.1,0.2,0.2,0.4,0.3c0.6,0.2,2,0.3,4,0.3v0.4H46.1v-0.4
		c0.8,0,1.7,0,2.4-0.1s1.4-0.2,1.9-0.4c0.2-0.1,0.3-0.6,0.3-1.4V51.2c0-0.6-0.1-0.9-0.2-1.2c-0.2-0.3-0.4-0.5-0.6-0.5
		c-0.5-0.1-1.8-0.2-3.8-0.2V49L55,48.2z M52.6,37.9c0.7,0,1.4,0.2,1.8,0.7c0.5,0.5,0.7,1.1,0.7,1.8s-0.2,1.4-0.7,1.8
		c-0.5,0.5-1.1,0.7-1.8,0.7s-1.4-0.2-1.8-0.7c-0.5-0.5-0.7-1.1-0.7-1.8s0.2-1.4,0.7-1.8C51.3,38.1,51.8,37.9,52.6,37.9z"/>
	<path fill="#FFFFFF" d="M71.9,49.7c1.2-0.8,1.8-1.4,1.9-1.4v6.9l-0.3-0.1c-0.4-1.8-1.2-3.4-2.3-4.5c-1.2-1.3-2.5-1.9-3.9-1.9
		c-1.1,0-2,0.2-2.7,0.6c-0.9,0.6-1.4,1.6-1.4,2.8c0,1.1,0.5,2,1.6,2.5c0.7,0.4,2.2,0.9,4.4,1.4c2.2,0.5,3.7,1.2,4.6,1.8
		c1.3,0.9,1.9,2.5,1.9,4.6c0,2-0.6,3.5-2,4.4c-1.1,0.7-2.4,1.2-4,1.2c-1.4,0-2.3-0.1-2.8-0.3c-0.8-0.3-1.8-0.9-2.8-2
		c-1.3,1.5-1.9,2.2-1.9,2.2v-8.1h0.1c0.5,1.9,0.9,3.2,1.3,3.9c0.4,1.1,0.9,1.8,1.5,2.2c0.7,0.6,1.4,1.1,2,1.3
		c0.6,0.2,1.6,0.2,2.8,0.2c0.9,0,1.7-0.2,2.3-0.7c0.7-0.6,1.1-1.4,1.1-2.4c0-1.4-0.5-2.4-1.5-3.1c-0.7-0.5-2.1-0.9-4.1-1.4
		c-1.9-0.4-3.5-1.1-4.5-1.9c-1.3-1.1-1.9-2.5-1.9-4.2c0-1.6,0.5-3,1.6-4c1.1-1.2,2.4-1.7,4-1.7c1.2,0,2.2,0.2,3.2,0.6
		C71,49.4,71.8,49.6,71.9,49.7z"/>
	<path fill="#FFFFFF" d="M100.1,54.5v-2.6c0-1.3-0.2-2.1-0.6-2.5c-0.4-0.4-1.3-0.6-2.5-0.6c-1.1,0-2,0.2-2.7,0.6
		c-0.7,0.4-1.3,0.9-1.6,1.7c0.1,0,0.3,0,0.4,0c0.6,0,1.1,0.2,1.4,0.7c0.3,0.4,0.5,0.9,0.5,1.6c0,0.6-0.2,1.3-0.7,1.7
		c-0.4,0.4-1.1,0.6-1.6,0.6c-0.4,0-0.7-0.1-1.1-0.3c-0.8-0.6-1.4-1.3-1.4-2.2c0-0.4,0.1-0.9,0.3-1.5c0.4-1.2,1.5-2.1,3.2-2.6
		c1.3-0.4,2.4-0.6,3.7-0.6c2.2,0,4,0.4,5.2,1.3c1.1,0.7,1.6,1.7,1.6,2.8v10.1c0,1.8,0,3,0.1,3.4c0.2,1.1,0.7,1.6,1.7,1.6
		c0.8,0,1.4-0.4,1.6-1.3c0.3-0.8,0.4-2,0.4-3.6c0-0.4,0-0.8,0-1.3s0-0.8,0-1.4v-0.4h0.5v2c0,0.6,0,1.3,0,1.8c0,1.8-0.2,3-0.6,3.6
		c-0.5,0.7-1.7,1.2-3.4,1.2c-1.4,0-2.3-0.2-3-0.6c-0.7-0.5-1.3-1.5-1.5-2.7c-0.6,1.5-1.6,2.5-2.8,3c-0.7,0.3-1.8,0.4-3.1,0.4
		c-1.3,0-2.4-0.3-3.4-0.9c-1.3-0.8-2-2.1-2-3.8c0-1.7,0.6-3.1,1.9-4.2c1.3-1.1,2.8-1.7,4.6-1.9c1.8-0.1,3.1-0.4,3.7-0.7
		C99.7,56.4,100.1,55.7,100.1,54.5z M99.9,62.8v-6.1c-0.3,0.5-0.9,0.8-1.6,0.9c-0.7,0.1-1.4,0.2-2.1,0.3c-0.8,0.2-1.6,0.7-2.1,1.5
		c-0.6,0.9-0.9,2.2-0.9,3.9c0,1.8,0.2,3,0.5,3.6c0.3,0.6,0.9,0.9,1.7,0.9c1.2,0,2.2-0.5,3.2-1.5C99.5,65.4,99.9,64.1,99.9,62.8z"/>
</g>
<g>
	<path fill="#FFFFFF" d="M14.9,5.9c-2.4,0-4.4,0.4-6,1.4c-1.6,0.9-2.6,2.5-3.1,4.9c-0.1,0.5-0.1,1.2,0.1,1.8C6,14.6,6.3,15,6.6,15.1
		l0.9-0.6c0.6-0.2,1.4-0.3,1.9-0.3c1.5,0,2.7,0.5,3.9,1.5c1.2,0.9,1.7,2.2,1.7,3.8c0,2-0.5,3.6-1.6,5c-1.1,1.3-2.7,1.9-4.9,1.9
		c-2,0-3.7-0.8-5.1-2.4c-1.3-1.6-2-3.7-2-6.3C1.5,8.6,6,4.1,15,4.1v1.8H14.9z M31,5.9c-2.4,0-4.4,0.4-6,1.4
		c-1.6,0.9-2.6,2.5-3.1,4.9c-0.1,0.5-0.1,1.2,0.1,1.8c0.1,0.6,0.3,1.1,0.6,1.2l0.9-0.6c0.6-0.2,1.4-0.3,1.9-0.3
		c1.5,0,2.7,0.5,3.9,1.5c1.2,0.9,1.7,2.2,1.7,3.8c0,2-0.5,3.6-1.6,5c-1.1,1.3-2.7,1.9-4.9,1.9c-2,0-3.7-0.8-5.1-2.4
		c-1.3-1.6-2-3.7-2-6.3c0-9,4.5-13.4,13.5-13.4v1.8H31z"/>
</g>
<g>
	<g>
		<defs>
			<rect id="SVGID_3_" x="400.5" y="134.2" width="153.3" height="116.9"/>
		</defs>
		<clipPath id="SVGID_4_">
			<use xlink:href="#SVGID_3_"  overflow="visible"/>
		</clipPath>
		<g clip-path="url(#SVGID_4_)">
			<path fill="#FFFFFF" d="M409,158c2.4,0,4.4-0.4,5.8-1.3c1.8-1.1,2.8-2.7,3.3-5.1c-0.1-0.8-0.2-1.5-0.2-2s-0.1-0.8-0.4-0.9
				l-0.9,0.6c-0.7,0.2-1.4,0.3-1.9,0.3c-1.5,0-2.7-0.5-3.9-1.5c-1.2-0.9-1.7-2.2-1.7-3.8c0-2,0.5-3.7,1.7-5c1.1-1.3,2.7-2,5-2
				c2,0,3.7,0.8,5.1,2.4c1.4,1.6,2,3.7,2,6.3c0,9.1-4.5,13.5-13.6,13.5V158H409z M425.4,158c2.4,0,4.4-0.4,5.8-1.3
				c1.8-1.1,2.8-2.7,3.3-5.1c-0.1-0.8-0.2-1.5-0.2-2s-0.1-0.8-0.4-0.9l-0.9,0.6c-0.7,0.2-1.4,0.3-1.9,0.3c-1.5,0-2.7-0.5-3.9-1.5
				c-1.2-0.9-1.7-2.2-1.7-3.8c0-2,0.5-3.7,1.7-5c1.1-1.3,2.7-2,5-2c2,0,3.7,0.8,5.1,2.4c1.4,1.6,2,3.7,2,6.3
				c0,9.1-4.5,13.5-13.6,13.5V158H425.4z"/>
		</g>
	</g>
</g>
</svg>
